# Blender v2.63 (sub 0) OBJ File: 'UnspecifiedAnimal.blend'
# www.blender.org
mtllib UnspecifiedAnimalWithNormals.mtl
o Cube
v -1.045287 1.738471 0.317515
v -1.369146 1.479384 0.317515
v -1.265511 1.608928 0.317515
v -0.850972 1.906878 0.317515
v -0.760291 1.686654 0.317515
v -0.565976 1.453476 0.317515
v -0.177345 1.310978 0.317515
v 0.263103 1.298023 0.317515
v 0.716505 1.272115 0.317515
v 0.949683 1.116663 0.317515
v 1.169908 0.857575 0.317515
v 0.884912 1.000073 0.317515
v 0.820140 0.857575 0.317515
v 0.664688 0.728032 0.317515
v 0.586962 0.546671 0.317515
v 0.664688 0.404173 0.317515
v 0.768322 0.222812 0.317515
v 0.729459 0.054406 0.317515
v 0.483327 0.080314 0.317515
v 0.444464 0.222812 0.317515
v 0.314920 0.507808 0.317515
v 0.289011 0.702123 0.317515
v 0.004016 0.650306 0.317515
v -0.293935 0.637351 0.317515
v -0.617793 0.715078 0.317515
v -0.630748 0.455991 0.317515
v -0.630748 0.248721 0.317515
v -0.617793 0.028497 0.317515
v -0.850972 0.041451 0.317515
v -0.838017 0.222812 0.317515
v -0.889835 0.468945 0.317515
v -0.941652 0.740986 0.317515
v -0.993469 1.051891 0.317515
v -0.993469 1.336886 0.317515
v -1.226648 1.207343 0.317515
v -1.420963 1.220297 0.317515
v -1.045287 1.738471 -0.338381
v -1.369146 1.479384 -0.338381
v -1.265511 1.608928 -0.338381
v -0.850972 1.906878 -0.338381
v -0.760291 1.686654 -0.338381
v -0.565976 1.453476 -0.338381
v -0.177345 1.310978 -0.338382
v 0.263103 1.298023 -0.338382
v 0.716505 1.272115 -0.338382
v 0.949683 1.116663 -0.338382
v 1.169908 0.857576 -0.338382
v 0.884912 1.000073 -0.338382
v 0.820140 0.857576 -0.338382
v 0.664688 0.728032 -0.338382
v 0.586962 0.546671 -0.338382
v 0.664688 0.404173 -0.338382
v 0.768322 0.222812 -0.338382
v 0.729459 0.054406 -0.338382
v 0.483327 0.080314 -0.338382
v 0.444464 0.222812 -0.338382
v 0.314920 0.507808 -0.338382
v 0.289011 0.702123 -0.338382
v 0.004016 0.650306 -0.338382
v -0.293935 0.637352 -0.338382
v -0.617793 0.715078 -0.338382
v -0.630748 0.455991 -0.338382
v -0.630748 0.248721 -0.338382
v -0.617793 0.028497 -0.338382
v -0.850972 0.041451 -0.338382
v -0.838017 0.222812 -0.338382
v -0.889835 0.468945 -0.338382
v -0.941652 0.740986 -0.338382
v -0.993469 1.051891 -0.338382
v -0.993469 1.336887 -0.338382
v -1.226648 1.207343 -0.338382
v -1.420963 1.220297 -0.338382
vn -0.695395 -0.139409 0.704917
vn -0.698630 -0.124729 0.704489
vn -0.698630 -0.124729 -0.704489
vn -0.695395 -0.139409 -0.704917
vn 0.597278 -0.455336 0.660207
vn 0.517685 -0.385815 0.763604
vn 0.517685 -0.385815 -0.763604
vn 0.597278 -0.455336 -0.660207
vn 0.471328 -0.660848 0.584033
vn -0.518509 -0.609760 0.599414
vn -0.518509 -0.609760 -0.599414
vn 0.471328 -0.660848 -0.584033
vn 0.080416 -0.717307 0.692068
vn -0.070559 -0.732475 0.677084
vn -0.070559 -0.732475 -0.677084
vn 0.080416 -0.717307 -0.692068
vn 0.573260 0.345714 0.742821
vn 0.367199 0.521195 0.770379
vn 0.367199 0.521195 -0.770379
vn 0.573260 0.345714 -0.742821
vn 0.581133 -0.579241 0.571551
vn -0.613208 -0.539994 0.576495
vn -0.613208 -0.539994 -0.576495
vn 0.581133 -0.579241 -0.571551
vn 0.489120 0.549699 0.677175
vn 0.662526 -0.519486 0.539598
vn 0.662526 -0.519486 -0.539598
vn 0.489120 0.549699 -0.677175
vn -0.722282 -0.059755 0.688986
vn -0.148045 -0.251595 0.956420
vn -0.148045 -0.251595 -0.956420
vn -0.722282 -0.059755 -0.688986
vn 0.571978 0.027009 0.819788
vn 0.615406 0.343608 0.709342
vn 0.615406 0.343608 -0.709342
vn 0.571978 0.027009 -0.819788
vn -0.647237 -0.233650 0.725578
vn -0.708640 -0.203436 0.675558
vn -0.708640 -0.203436 -0.675558
vn -0.647237 -0.233650 -0.725578
vn -0.486953 0.562090 0.668508
vn -0.399823 0.556627 0.728172
vn -0.399823 0.556627 -0.728172
vn -0.486953 0.562090 -0.668508
vn 0.227119 -0.303385 0.925382
vn 0.701163 -0.017518 0.712760
vn 0.701163 -0.017518 -0.712760
vn 0.227119 -0.303385 -0.925382
vn 0.126225 0.654958 0.745018
vn 0.030671 0.709525 0.704001
vn 0.030671 0.709525 -0.704001
vn 0.126225 0.654958 -0.745018
vn -0.671285 -0.045778 0.739738
vn -0.671285 -0.045778 -0.739738
vn 0.139195 -0.393231 0.908811
vn 0.139195 -0.393231 -0.908811
vn 0.166265 -0.742698 0.648610
vn -0.651936 -0.499130 0.570757
vn -0.651936 -0.499130 -0.570757
vn 0.166265 -0.742698 -0.648610
vn 0.765435 0.112674 0.633534
vn 0.765435 0.112674 -0.633534
vn -0.243965 -0.335154 0.910001
vn -0.243965 -0.335154 -0.910001
vn 0.190985 0.804621 0.562212
vn 0.190985 0.804621 -0.562212
vn 0.700064 0.020569 0.713767
vn 0.700064 0.020569 -0.713767
vn 0.240181 0.718650 0.652547
vn 0.240181 0.718650 -0.652547
vn -0.682882 0.318217 0.657552
vn -0.682882 0.318217 -0.657552
usemtl Material
s 1
f 31//1 32//2 68//3
f 31//1 68//3 67//4
f 13//5 14//6 50//7
f 13//5 50//7 49//8
f 18//9 19//10 55//11
f 18//9 55//11 54//12
f 23//13 24//14 60//15
f 23//13 60//15 59//16
f 5//17 6//18 42//19
f 5//17 42//19 41//20
f 28//21 29//22 65//23
f 28//21 65//23 64//24
f 10//25 11//26 47//27
f 10//25 47//27 46//28
f 33//29 34//30 70//31
f 33//29 70//31 69//32
f 15//33 16//34 52//35
f 15//33 52//35 51//36
f 20//37 21//38 57//39
f 20//37 57//39 56//40
f 3//41 1//42 37//43
f 3//41 37//43 39//44
f 25//45 26//46 62//47
f 25//45 62//47 61//48
f 7//49 8//50 44//51
f 7//49 44//51 43//52
f 30//53 31//1 67//4
f 30//53 67//4 66//54
f 12//55 13//5 49//8
f 12//55 49//8 48//56
f 35//57 36//58 72//59
f 35//57 72//59 71//60
f 17//61 18//9 54//12
f 17//61 54//12 53//62
f 22//63 23//13 59//16
f 22//63 59//16 58//64
f 4//65 5//17 41//20
f 4//65 41//20 40//66
f 27//67 28//21 64//24
f 27//67 64//24 63//68
f 9//69 10//25 46//28
f 9//69 46//28 45//70
f 32//2 33//29 69//32
f 32//2 69//32 68//3
f 14//6 15//33 51//36
f 14//6 51//36 50//7
f 19//10 20//37 56//40
f 19//10 56//40 55//11
f 2//71 3//41 39//44
f 2//71 39//44 38//72
f 24//14 25//45 61//48
f 24//14 61//48 60//15
f 6//18 7//49 43//52
f 6//18 43//52 42//19
f 29//22 30//53 66//54
f 29//22 66//54 65//23
f 11//26 12//55 48//56
f 11//26 48//56 47//27
f 34//30 35//57 71//60
f 34//30 71//60 70//31
f 16//34 17//61 53//62
f 16//34 53//62 52//35
f 21//38 22//63 58//64
f 21//38 58//64 57//39
f 1//42 4//65 40//66
f 1//42 40//66 37//43
f 26//46 27//67 63//68
f 26//46 63//68 62//47
f 8//50 9//69 45//70
f 8//50 45//70 44//51
f 41//20 37//43 40//66
f 47//27 48//56 46//28
f 61//48 67//4 68//3
f 51//36 58//64 50//7
f 62//47 67//4 61//48
f 51//36 57//39 58//64
f 62//47 66//54 67//4
f 63//68 66//54 62//47
f 53//62 56//40 52//35
f 64//24 66//54 63//68
f 53//62 55//11 56//40
f 64//24 65//23 66//54
f 54//12 55//11 53//62
f 42//19 69//32 70//31
f 51//36 56//40 57//39
f 51//36 52//35 56//40
f 39//44 70//31 38//72
f 71//60 38//72 70//31
f 71//60 72//59 38//72
f 69//32 61//48 68//3
f 41//20 42//19 70//31
f 45//70 46//28 48//56
f 37//43 70//31 39//44
f 37//43 41//20 70//31
f 42//19 61//48 69//32
f 42//19 43//52 61//48
f 50//7 48//56 49//8
f 44//51 61//48 43//52
f 59//16 44//51 58//64
f 45//70 58//64 44//51
f 60//15 44//51 59//16
f 60//15 61//48 44//51
f 50//7 45//70 48//56
f 50//7 58//64 45//70
f 4//65 1//42 5//17
f 11//26 10//25 12//55
f 25//45 32//2 31//1
f 15//33 14//6 22//63
f 26//46 25//45 31//1
f 15//33 22//63 21//38
f 26//46 31//1 30//53
f 27//67 26//46 30//53
f 17//61 16//34 20//37
f 28//21 27//67 30//53
f 17//61 20//37 19//10
f 28//21 30//53 29//22
f 18//9 17//61 19//10
f 6//18 34//30 33//29
f 15//33 21//38 20//37
f 15//33 20//37 16//34
f 3//41 2//71 34//30
f 35//57 34//30 2//71
f 35//57 2//71 36//58
f 33//29 32//2 25//45
f 5//17 34//30 6//18
f 9//69 12//55 10//25
f 1//42 3//41 34//30
f 1//42 34//30 5//17
f 6//18 33//29 25//45
f 6//18 25//45 7//49
f 14//6 13//5 12//55
f 8//50 7//49 25//45
f 23//13 22//63 8//50
f 9//69 8//50 22//63
f 24//14 23//13 8//50
f 24//14 8//50 25//45
f 14//6 12//55 9//69
f 14//6 9//69 22//63
f 36//58 2//71 38//72
f 36//58 38//72 72//59
