# Blender v2.63 (sub 0) OBJ File: 'UnspecifiedAnimal.blend'
# www.blender.org
mtllib UnspecifiedAnimalWithNormals.mtl
o Cube
v -1.003149 1.668390 0.304715
v -1.313953 1.419747 0.304715
v -1.214496 1.544069 0.304715
v -0.816667 1.830008 0.304715
v -0.729642 1.618662 0.304715
v -0.543160 1.394883 0.304715
v -0.170196 1.258130 0.304715
v 0.252497 1.245697 0.304715
v 0.687621 1.220833 0.304715
v 0.911400 1.071648 0.304715
v 1.122746 0.823005 0.304715
v 0.849239 0.959758 0.304715
v 0.787078 0.823005 0.304715
v 0.637893 0.698684 0.304715
v 0.563300 0.524634 0.304715
v 0.637893 0.387880 0.304715
v 0.737350 0.213830 0.304715
v 0.700053 0.052212 0.304715
v 0.463843 0.077077 0.304715
v 0.426546 0.213830 0.304715
v 0.302225 0.487337 0.304715
v 0.277361 0.673819 0.304715
v 0.003854 0.624091 0.304715
v -0.282085 0.611659 0.304715
v -0.592889 0.686251 0.304715
v -0.605321 0.437609 0.304715
v -0.605321 0.238694 0.304715
v -0.592889 0.027348 0.304715
v -0.816667 0.039780 0.304715
v -0.804235 0.213830 0.304715
v -0.853964 0.450041 0.304715
v -0.903692 0.711116 0.304715
v -0.953421 1.009487 0.304715
v -0.953421 1.282994 0.304715
v -1.177199 1.158672 0.304715
v -1.363681 1.171105 0.304715
v -1.363681 1.171105 0.304715
v -1.003149 1.668390 -0.324741
v -1.313953 1.419747 -0.324741
v -1.214496 1.544069 -0.324741
v -0.816667 1.830008 -0.324741
v -0.729642 1.618662 -0.324741
v -0.543160 1.394883 -0.324741
v -0.170196 1.258130 -0.324741
v 0.252497 1.245698 -0.324741
v 0.687621 1.220833 -0.324741
v 0.911400 1.071648 -0.324741
v 1.122746 0.823005 -0.324741
v 0.849239 0.959758 -0.324741
v 0.787078 0.823005 -0.324741
v 0.637893 0.698684 -0.324741
v 0.563300 0.524634 -0.324741
v 0.637893 0.387880 -0.324741
v 0.737350 0.213830 -0.324741
v 0.700053 0.052213 -0.324741
v 0.463843 0.077077 -0.324741
v 0.426546 0.213830 -0.324741
v 0.302225 0.487337 -0.324741
v 0.277361 0.673819 -0.324741
v 0.003854 0.624091 -0.324741
v -0.282085 0.611659 -0.324741
v -0.592889 0.686251 -0.324741
v -0.605321 0.437609 -0.324741
v -0.605321 0.238695 -0.324741
v -0.592889 0.027348 -0.324741
v -0.816667 0.039780 -0.324741
v -0.804235 0.213830 -0.324741
v -0.853964 0.450041 -0.324741
v -0.903692 0.711116 -0.324741
v -0.953421 1.009487 -0.324741
v -0.953421 1.282994 -0.324741
v -1.177199 1.158673 -0.324741
v -1.363681 1.171105 -0.324741
v -1.363681 1.171105 -0.324741
vn -0.982339 -0.187112 -0.000000
vn 0.640184 -0.768221 -0.000000
vn 0.000000 0.000000 0.000000
vn -0.104685 -0.994505 -0.000000
vn 0.043437 -0.999056 -0.000000
vn 0.768221 0.640185 0.000000
vn -0.055470 -0.998460 -0.000000
vn 0.761939 0.647648 0.000000
vn -1.000000 0.000000 0.000000
vn 0.877895 0.478852 0.000000
vn -0.910366 -0.413803 -0.000000
vn -0.507020 0.861934 0.000000
vn 0.998752 -0.049938 -0.000000
vn 0.029399 0.999568 0.000000
vn -0.978550 -0.206010 -0.000000
vn 0.910367 -0.413803 -0.000000
vn -0.066519 -0.997785 -0.000000
vn 0.974391 -0.224860 -0.000000
vn 0.178885 -0.983870 -0.000000
vn 0.924678 0.380750 0.000000
vn 0.998274 0.058722 0.000000
vn 0.554700 0.832050 0.000000
vn -0.986394 -0.164399 -0.000000
vn 0.919145 -0.393919 -0.000000
vn -0.980581 0.196116 0.000000
vn -0.964764 -0.263117 -0.000000
vn -0.780869 0.624695 0.000000
vn -0.233373 -0.972387 -0.000000
vn 0.344255 0.938876 0.000000
vn -0.997459 0.071248 0.000000
vn -0.447213 -0.894427 -0.000000
vn 0.485643 -0.874157 -0.000000
vn 0.868243 0.496139 0.000000
vn -0.991228 -0.132164 -0.000000
vn -0.654931 0.755689 0.000000
vn 1.000000 0.000000 -0.000000
vn 0.057050 0.998371 0.000000
vn 0.000000 0.000000 -1.000000
vn 0.000001 -0.000000 -1.000000
vn -0.000000 -0.000000 1.000000
usemtl Material
s off
f 31//1 32//1 69//1 68//1
f 13//2 14//2 51//2 50//2
f 36//3 37//3 74//3 73//3
f 18//4 19//4 56//4 55//4
f 23//5 24//5 61//5 60//5
f 5//6 6//6 43//6 42//6
f 28//7 29//7 66//7 65//7
f 10//8 11//8 48//8 47//8
f 33//9 34//9 71//9 70//9
f 15//10 16//10 53//10 52//10
f 20//11 21//11 58//11 57//11
f 3//12 1//12 38//12 40//12
f 25//13 26//13 63//13 62//13
f 7//14 8//14 45//14 44//14
f 30//15 31//15 68//15 67//15
f 12//16 13//16 50//16 49//16
f 35//17 36//17 73//17 72//17
f 17//18 18//18 55//18 54//18
f 22//19 23//19 60//19 59//19
f 4//20 5//20 42//20 41//20
f 27//21 28//21 65//21 64//21
f 9//22 10//22 47//22 46//22
f 32//23 33//23 70//23 69//23
f 14//24 15//24 52//24 51//24
f 37//25 2//25 39//25 74//25
f 19//26 20//26 57//26 56//26
f 2//27 3//27 40//27 39//27
f 24//28 25//28 62//28 61//28
f 6//29 7//29 44//29 43//29
f 29//30 30//30 67//30 66//30
f 11//31 12//31 49//31 48//31
f 34//32 35//32 72//32 71//32
f 16//33 17//33 54//33 53//33
f 21//34 22//34 59//34 58//34
f 1//35 4//35 41//35 38//35
f 26//36 27//36 64//36 63//36
f 8//37 9//37 46//37 45//37
f 42//38 38//38 41//38
f 48//38 49//38 47//38
f 62//38 68//38 69//38
f 52//38 59//38 51//38
f 63//38 68//38 62//38
f 52//38 58//38 59//38
f 63//38 67//38 68//38
f 64//38 67//38 63//38
f 54//38 57//38 53//38
f 65//38 67//38 64//38
f 54//38 56//38 57//38
f 65//38 66//38 67//38
f 55//38 56//38 54//38
f 43//38 70//38 71//38
f 52//38 57//38 58//38
f 52//38 53//38 57//38
f 40//38 71//38 39//38
f 72//38 39//38 71//38
f 72//38 73//38 39//38
f 70//38 62//38 69//38
f 42//38 43//38 71//38
f 46//38 47//38 49//38
f 38//38 71//38 40//38
f 38//38 42//38 71//38
f 43//38 62//38 70//38
f 43//38 44//38 62//38
f 51//39 49//39 50//39
f 45//38 62//38 44//38
f 60//38 45//38 59//38
f 46//38 59//38 45//38
f 61//38 45//38 60//38
f 61//38 62//38 45//38
f 51//38 46//38 49//38
f 51//38 59//38 46//38
f 4//40 1//40 5//40
f 11//40 10//40 12//40
f 25//40 32//40 31//40
f 15//40 14//40 22//40
f 26//40 25//40 31//40
f 15//40 22//40 21//40
f 26//40 31//40 30//40
f 27//40 26//40 30//40
f 17//40 16//40 20//40
f 28//40 27//40 30//40
f 17//40 20//40 19//40
f 28//40 30//40 29//40
f 18//40 17//40 19//40
f 6//40 34//40 33//40
f 15//40 21//40 20//40
f 15//40 20//40 16//40
f 3//40 2//40 34//40
f 35//40 34//40 2//40
f 35//40 2//40 36//40
f 33//40 32//40 25//40
f 5//40 34//40 6//40
f 9//40 12//40 10//40
f 1//40 3//40 34//40
f 1//40 34//40 5//40
f 6//40 33//40 25//40
f 6//40 25//40 7//40
f 14//40 13//40 12//40
f 8//40 7//40 25//40
f 23//40 22//40 8//40
f 9//40 8//40 22//40
f 24//40 23//40 8//40
f 24//40 8//40 25//40
f 14//40 12//40 9//40
f 14//40 9//40 22//40
